<svg xmlns="http://www.w3.org/2000/svg" viewBox="0 0 32 32">
  <path fill="#25D366" d="M16 3C8.83 3 3 8.68 3 15.66c0 2.23.61 4.41 1.77 6.32L3 29l7.22-1.84A13.3 13.3 0 0 0 16 28.31c7.17 0 13-5.68 13-12.65S23.17 3 16 3Z"/>
  <path fill="#fff" d="M23.52 19.64c-.31.86-1.56 1.58-2.25 1.68-.58.09-1.33.13-2.15-.13-.5-.16-1.14-.37-1.96-.73-3.44-1.48-5.68-4.81-5.85-5.03-.17-.22-1.4-1.81-1.4-3.45s.88-2.45 1.19-2.78c.31-.34.68-.42.91-.42h.66c.21.01.5-.08.78.58.31.72 1.05 2.49 1.14 2.67.09.18.15.39.03.62-.12.24-.18.39-.36.6-.18.21-.38.47-.54.63-.18.18-.37.38-.16.74.21.36.94 1.51 2.02 2.45 1.39 1.2 2.56 1.57 2.92 1.75.36.18.57.15.78-.09.21-.24.9-1.02 1.14-1.37.24-.36.48-.3.81-.18.33.12 2.1.96 2.46 1.14.36.18.6.27.69.42.09.15.09.87-.22 1.73Z"/>
</svg>
